<?xml version="1.0" encoding="utf-8"?>
<svg viewBox="0 0 500 500" xmlns="http://www.w3.org/2000/svg">
  <path id="a7e0d23c-0c47-41f1-93b9-87dfccd4c0f5-344" data-name="Path 968" d="M 354.57 121.721 L 351.899 121.721 L 351.899 48.492 C 351.899 25.084 332.925 6.109 309.517 6.109 L 154.366 6.109 C 130.96 6.109 111.982 25.084 111.982 48.491 L 111.982 450.236 C 111.982 473.644 130.959 492.619 154.365 492.619 L 309.515 492.619 C 332.923 492.619 351.898 473.644 351.898 450.236 L 351.898 173.849 L 354.567 173.849 L 354.57 121.721 Z" style=""/>
  <path id="a1ad11fc-8226-4675-bbe0-e36020d9de96-345" data-name="Path 969" d="M 343.206 45.652 L 343.206 453.073 C 343.204 470.82 328.821 485.207 311.072 485.214 L 152.739 485.214 C 134.984 485.217 120.589 470.827 120.583 453.073 L 120.583 45.652 C 120.589 27.9 134.984 13.511 152.737 13.513 L 171.944 13.513 C 167.86 23.558 175.243 34.542 186.084 34.557 L 276.354 34.557 C 287.196 34.542 294.577 23.558 290.492 13.513 L 311.066 13.513 C 328.812 13.516 343.2 27.9 343.206 45.646 L 343.206 45.652 Z" fill="#fff" style=""/>
  <path id="a71e44ec-7616-4081-86af-b6db32cd39f3-346" data-name="Path 39" d="M 303.96 280.332 L 163.261 280.332 C 161.824 280.331 160.658 279.164 160.655 277.727 L 160.655 242.827 C 160.658 241.387 161.824 240.222 163.261 240.22 L 303.96 240.22 C 305.398 240.222 306.563 241.387 306.565 242.827 L 306.565 277.728 C 306.563 279.165 305.398 280.331 303.96 280.332 Z M 163.261 241.261 C 162.398 241.262 161.698 241.962 161.698 242.827 L 161.698 277.728 C 161.698 278.59 162.398 279.29 163.261 279.291 L 303.96 279.291 C 304.822 279.29 305.522 278.59 305.522 277.728 L 305.522 242.827 C 305.522 241.962 304.822 241.262 303.96 241.261 L 163.261 241.261 Z" fill="#e6e6e6" style=""/>
  <path id="a3f57aef-fb20-4553-8f82-b751eb5ec42c-347" data-name="Path 40" d="M 206.773 252.79 C 205.369 252.79 204.491 254.309 205.196 255.526 C 205.52 256.09 206.123 256.438 206.773 256.438 L 292.756 256.438 C 294.159 256.491 295.094 255.006 294.439 253.764 C 294.135 253.188 293.546 252.816 292.894 252.791 C 292.868 252.791 292.841 252.79 292.815 252.79 L 206.773 252.79 Z" fill="#e6e6e6" style=""/>
  <path id="a617e1da-1a45-4bf0-a146-8b20186fa5b6-348" data-name="Path 41" d="M 206.773 263.732 C 205.369 263.732 204.491 265.251 205.196 266.468 C 205.52 267.032 206.123 267.379 206.773 267.379 L 292.756 267.379 C 294.159 267.432 295.094 265.947 294.439 264.706 C 294.135 264.129 293.546 263.759 292.894 263.734 C 292.868 263.733 292.841 263.733 292.815 263.733 L 206.773 263.733 L 206.773 263.732 Z" fill="#e6e6e6" style=""/>
  <path id="f83fafa3-5270-49ac-8952-eedc3d6c92ed-349" data-name="Path 42" d="M 303.96 338.505 L 163.261 338.505 C 161.824 338.503 160.658 337.336 160.655 335.899 L 160.655 300.998 C 160.658 299.56 161.824 298.395 163.261 298.393 L 303.96 298.393 C 305.398 298.395 306.563 299.56 306.565 300.998 L 306.565 335.899 C 306.563 337.336 305.398 338.503 303.96 338.505 Z M 163.261 299.435 C 162.398 299.436 161.698 300.135 161.698 300.998 L 161.698 335.899 C 161.698 336.764 162.398 337.462 163.261 337.464 L 303.96 337.464 C 304.822 337.462 305.522 336.764 305.522 335.899 L 305.522 300.998 C 305.522 300.135 304.822 299.436 303.96 299.435 L 163.261 299.435 Z" fill="#e6e6e6" style=""/>
  <path id="b1e095e5-1d51-47f4-b1e9-85a21efab4ec-350" data-name="Path 43" d="M 206.773 311.151 C 205.369 311.151 204.491 312.669 205.196 313.886 C 205.52 314.451 206.123 314.798 206.773 314.798 L 292.756 314.798 C 294.16 314.79 295.028 313.265 294.32 312.053 C 294.004 311.516 293.438 311.176 292.815 311.152 L 206.773 311.152 L 206.773 311.151 Z" fill="#e6e6e6" style=""/>
  <path id="e7ccabbb-2f45-40c9-adc9-a92013dc0f4d-351" data-name="Path 44" d="M 206.773 322.095 C 205.369 322.095 204.491 323.615 205.196 324.831 C 205.52 325.395 206.123 325.743 206.773 325.743 L 292.756 325.743 C 294.16 325.734 295.028 324.21 294.32 322.998 C 294.004 322.46 293.438 322.12 292.815 322.096 L 206.773 322.096 L 206.773 322.095 Z" fill="#e6e6e6" style=""/>
  <path id="ec532991-8ec8-4eba-a86f-87c70c278f41-352" data-name="Path 39-2" d="M 303.96 396.867 L 163.261 396.867 C 161.824 396.866 160.658 395.701 160.655 394.261 L 160.655 359.36 C 160.658 357.923 161.824 356.758 163.261 356.756 L 303.96 356.756 C 305.398 356.758 306.563 357.923 306.565 359.36 L 306.565 394.262 C 306.563 395.701 305.398 396.866 303.96 396.868 L 303.96 396.867 Z M 163.261 357.798 C 162.398 357.798 161.698 358.498 161.698 359.36 L 161.698 394.262 C 161.698 395.125 162.398 395.825 163.261 395.825 L 303.96 395.825 C 304.822 395.825 305.522 395.125 305.522 394.262 L 305.522 359.36 C 305.522 358.498 304.822 357.798 303.96 357.798 L 163.261 357.798 Z" fill="#e6e6e6" style=""/>
  <path id="a788f10e-f95b-4590-bad9-be702445c232-353" data-name="Path 40-2" d="M 206.773 369.515 C 205.369 369.515 204.491 371.036 205.196 372.252 C 205.52 372.815 206.123 373.163 206.773 373.163 L 292.756 373.163 C 294.159 373.217 295.094 371.73 294.439 370.49 C 294.135 369.911 293.546 369.542 292.894 369.516 C 292.868 369.515 292.841 369.515 292.815 369.515 L 206.773 369.515 Z" fill="#e6e6e6" style=""/>
  <path id="f15a5014-9b42-4c0b-a546-80766b911601-354" data-name="Path 41-2" d="M 206.773 380.458 C 205.369 380.458 204.491 381.979 205.196 383.194 C 205.52 383.759 206.123 384.107 206.773 384.107 L 292.756 384.107 C 294.159 384.16 295.094 382.675 294.439 381.432 C 294.135 380.857 293.546 380.484 292.894 380.46 C 292.868 380.459 292.841 380.458 292.815 380.459 L 206.773 380.459 L 206.773 380.458 Z" fill="#e6e6e6" style=""/>
  <path id="b97f850c-7352-4ff9-8496-0f681ff3b244-355" data-name="Path 970" d="M 486.285 493.892 L 13.717 493.892 C 13.031 493.892 12.475 493.573 12.475 493.177 C 12.475 492.782 13.031 492.461 13.717 492.461 L 486.286 492.461 C 486.971 492.461 487.526 492.782 487.526 493.177 C 487.526 493.572 486.97 493.892 486.285 493.892 Z" fill="#e6e6e6" style=""/>
  <g id="bf60e786-3805-43a5-8cdd-bbea060079bf" data-name="Group 59" transform="matrix(0.684539, 0, 0, 0.684539, 12.475649, 6.107464)" style="">
    <circle id="a323e3dd-8f2c-40f7-a0c1-7a235f78e8b7" data-name="Ellipse 5" cx="245.91502" cy="370.985" r="15.986" style=""/>
    <path id="b21d221e-9b86-4bff-9dca-a61a27263db1-360" data-name="Path 40-3" d="M491.27554,461.71247c-.184,0-.333,1.193-.333,2.664s.149,2.665.333,2.665h15.719c.184.024.336-1.149.339-2.62a5.94306,5.94306,0,0,0-.328-2.708h-15.73Z" transform="translate(-253.01352 -93.71349)" style=""/>
  </g>
  <g id="b51141dd-8175-4f5a-b697-41b89601b37f" data-name="Group 60" transform="matrix(0.684539, 0, 0, 0.684539, 12.475649, 6.107464)" style="">
    <circle id="e363222e-d569-47a6-8bf5-edbaac636a07" data-name="Ellipse 5-2" cx="245.91502" cy="456.278" r="15.986" style=""/>
    <path id="bf4b9d9b-b2cd-48cd-bc0b-2e6b007ef33d-361" data-name="Path 40-4" d="M491.27554,547.00547c-.184,0-.333,1.193-.333,2.664s.149,2.665.333,2.665h15.719c.184.024.336-1.149.339-2.62a5.94306,5.94306,0,0,0-.328-2.708h-15.73Z" transform="translate(-253.01352 -93.71349)" style=""/>
  </g>
  <g id="b35aa588-fd9e-4429-8570-fee6b5da93cc" data-name="Group 61" transform="matrix(0.684539, 0, 0, 0.684539, 12.475649, 6.107464)" style="">
    <circle id="b896a996-d737-41ee-9642-d5eaf8a9fd6b" data-name="Ellipse 5-3" cx="245.91502" cy="541.53599" r="15.986" style=""/>
    <path id="f0c90521-3626-484d-9767-39f7327e6a31-362" data-name="Path 40-5" d="M491.27554,632.26346c-.184,0-.333,1.193-.333,2.664s.149,2.665.333,2.665h15.719c.184.024.336-1.149.339-2.62a5.9431,5.9431,0,0,0-.328-2.708h-15.73Z" transform="translate(-253.01352 -93.71349)" style=""/>
  </g>
  <path d="M 267.251 181.809 C 266.093 181.812 265.031 181.163 264.505 180.131 C 260.069 171.461 252.33 164.943 243.029 162.051 C 241.144 161.479 239.221 161.044 237.274 160.749 L 236.877 160.689 L 257.358 96.652 L 257.705 96.663 C 297.495 107.477 320.261 139.366 326.291 148.882 C 327.264 150.424 326.692 152.469 325.061 153.281 L 268.634 181.481 C 268.204 181.697 267.731 181.809 267.251 181.809 Z" fill="#e6e6e6" style=""/>
  <path id="e0f3bbc9-2b9f-408e-80ac-e1d5d48fdbc4-363" data-name="Path 2881" d="M 390.083 318.254 C 390.991 314.405 395.157 312.314 398.785 313.884 L 414.036 297.255 L 416.888 308.629 L 401.965 322.675 C 399.722 327.048 393.586 327.352 390.921 323.223 C 389.971 321.751 389.668 319.954 390.083 318.253 L 390.083 318.254 Z" fill="#feb8b8" style=""/>
  <path id="b7278a0b-1b02-42c5-a26a-5568eba21726-364" data-name="Path 2882" d="M 422.843 484.144 L 413.524 484.144 L 409.091 448.193 L 422.85 448.193 L 422.843 484.144 Z" fill="#feb8b8" style=""/>
  <path id="ae5e3f59-c07c-4936-a848-b4ed4a22f493-365" data-name="Path 2883" d="M 425.222 481.099 L 406.864 481.099 C 400.405 481.099 395.169 486.336 395.168 492.797 L 395.168 493.177 L 425.219 493.177 L 425.222 481.099 Z" style=""/>
  <path id="e2dcac65-80ca-45a3-9c58-68329f82aa19-366" data-name="Path 2884" d="M 476.368 474.909 L 467.653 478.218 L 450.75 446.182 L 463.61 441.301 L 476.368 474.909 Z" fill="#feb8b8" style=""/>
  <path id="e33efd2e-5dad-4e18-8ce5-ea4b13e613d2-367" data-name="Path 2885" d="M 477.511 471.221 L 460.351 477.735 C 454.311 480.027 451.274 486.781 453.565 492.821 L 453.702 493.176 L 481.799 482.513 L 477.511 471.221 Z" style=""/>
  <path id="aea1be6b-88fd-4404-a4b2-fdb70dea932e-368" data-name="Path 2886" d="M 445.688 364.565 L 453.41 406.126 C 453.41 406.126 474.374 464.606 472.904 466.075 C 471.432 467.548 451.204 472.696 452.307 469.386 C 453.41 466.077 428.032 416.424 428.032 416.424 L 445.688 364.565 Z" style=""/>
  <path id="a45d4c0e-5c31-49a4-b00c-14ea50dd8cbe-369" data-name="Path 2887" d="M 414.366 289.039 C 414.366 289.039 398.773 309.421 400.816 310.534 C 402.86 311.648 410.775 317.542 410.775 317.542 L 418.828 295.441 L 414.366 289.039 Z" fill="#e4e4e4" style=""/>
  <path id="ababf4ae-7dbc-4717-bb50-ecd0b5fac405-370" data-name="Path 2888" d="M 410.011 309.612 C 410.011 309.612 407.436 328.736 408.539 332.782 C 409.643 336.828 408.906 451.58 408.171 453.418 C 407.436 455.257 405.229 461.509 406.333 464.451 C 407.438 467.393 422.515 474.749 424.723 472.175 C 426.93 469.601 443.114 375.814 443.114 375.814 C 443.114 375.814 465.917 319.174 460.768 313.658 C 455.619 308.142 410.011 309.612 410.011 309.612 Z" style=""/>
  <circle id="a4a0a325-f198-46ef-8204-e1264a7da486" data-name="Ellipse 542" cx="443.101" cy="168.674" r="18.022" fill="#feb8b8" style=""/>
  <path id="f1bcc5ff-8c37-42ba-ac71-fb7b653723a6-371" data-name="Path 2890" d="M 424.268 209.405 C 424.723 206.487 426.174 203.816 428.376 201.847 L 431.661 191.802 L 450.972 191.802 L 456.353 200.245 C 462.172 202.751 466.484 206.727 466.648 211.411 C 467.537 214.522 463.704 313.289 462.601 316.967 C 462.277 318.038 457.878 318.61 451.692 318.865 C 446.022 319.096 438.854 319.064 431.971 318.904 C 420.579 318.641 409.956 318.03 408.169 317.701 C 404.127 316.968 423.869 211.724 424.268 209.405 Z" fill="#e4e4e4" style=""/>
  <path id="f2ae932d-f3ee-421e-b804-f39bdd3d1485-372" data-name="Path 2891" d="M 441.341 340.379 C 444.673 338.25 445.272 333.627 442.59 330.722 L 453.248 310.832 L 441.571 311.897 L 433.241 330.622 C 429.855 334.182 431.594 340.076 436.371 341.227 C 438.074 341.638 439.871 341.331 441.341 340.379 Z" fill="#feb8b8" style=""/>
  <path id="a13bc27c-3d22-450d-9b6a-4857ac9e22b6-373" data-name="Path 2893" d="M 443.113 198.54 C 443.113 198.54 426.194 205.526 432.446 223.184 C 438.699 240.838 445.688 261.801 445.688 261.801 C 445.688 261.801 436.86 309.246 436.86 311.087 C 436.86 312.929 431.343 322.856 433.549 324.696 C 435.754 326.535 450.468 330.213 450.835 328.374 C 451.962 324.138 453.314 319.963 454.882 315.869 C 455.617 314.398 472.902 268.424 470.694 264.377 C 469.07 261.401 467.645 234.121 467.005 219.925 C 466.704 211.684 462.078 204.211 454.833 200.268 C 451.407 198.447 447.416 197.463 443.113 198.54 Z" fill="#e4e4e4" style=""/>
  <path id="a3aad1c3-1778-4515-92de-8de9e018032c-374" data-name="Path 2800" d="M 450.037 176.729 C 448.667 176.099 447.081 175.966 445.601 175.575 C 440.307 174.17 436.76 168.941 437.893 164.212 C 438.101 163.61 438.195 162.975 438.17 162.339 C 437.973 160.937 436.331 160.034 434.757 159.712 C 433.184 159.391 431.508 159.439 430.004 158.922 C 427.788 158.136 426.176 156.202 425.804 153.879 C 425.571 151.665 426.136 149.439 427.397 147.602 L 427.966 149.031 C 428.809 148.421 429.455 147.578 429.823 146.604 C 431.077 146.754 432.173 147.523 432.739 148.652 C 433.653 149.123 433.784 147.192 434.793 146.908 C 435.232 146.859 435.674 146.955 436.052 147.181 C 438.083 148.009 440.441 147.301 442.622 146.843 C 446.41 146.052 450.315 146.048 454.105 146.83 C 456.611 147.353 459.094 148.263 460.889 149.881 C 462.265 151.231 463.345 152.854 464.062 154.645 C 465.987 158.876 467.258 163.455 466.624 167.974 C 466.045 171.767 464.26 175.272 461.533 177.969 C 460.079 179.432 455.338 184.535 452.739 183.665 C 449.468 182.569 453.885 178.507 450.037 176.729 Z" style=""/>
  <circle cx="232.884" cy="188.51" r="5.476" style=""/>
  <path d="M 196.132 181.728 C 195.63 181.728 195.136 181.603 194.694 181.369 L 138.594 151.774 C 137.023 150.945 136.474 148.96 137.401 147.444 C 144.895 135.433 154.385 124.789 165.462 115.972 C 184.835 100.618 206.872 92.914 230.957 93.043 C 239.989 93.083 248.979 94.301 257.698 96.663 L 258.044 96.759 L 237.557 160.79 L 237.268 160.747 C 235.423 160.468 233.562 160.303 231.698 160.252 C 210.853 159.664 201.82 173.858 198.904 179.987 C 198.548 180.739 197.9 181.311 197.109 181.569 C 196.794 181.674 196.465 181.728 196.132 181.728 Z" style=""/>
  <path d="M 257.616 96.994 L 243.131 161.724 C 241.229 161.148 239.289 160.708 237.324 160.41 L 257.608 96.994 L 257.616 96.994 Z" style=""/>
</svg>