<?xml version="1.0" standalone="no"?>
<!DOCTYPE svg PUBLIC "-//W3C//DTD SVG 20010904//EN"
 "http://www.w3.org/TR/2001/REC-SVG-20010904/DTD/svg10.dtd">
<svg version="1.0" xmlns="http://www.w3.org/2000/svg"
 width="496.000000pt" height="132.000000pt" viewBox="0 0 496.000000 132.000000"
 preserveAspectRatio="xMidYMid meet">

<g transform="translate(0.000000,132.000000) scale(0.100000,-0.100000)"
fill="#000000" stroke="none">
<path d="M2433 1293 l-23 -4 0 -224 c0 -138 4 -226 10 -230 5 -3 40 -8 77 -11
58 -5 75 -2 112 18 53 27 81 75 81 136 0 111 -88 184 -186 154 l-34 -10 0 89
c0 49 -3 88 -7 88 -5 -1 -18 -4 -30 -6z m172 -228 c21 -20 25 -34 25 -80 0
-49 -4 -60 -29 -86 -25 -24 -37 -29 -80 -29 l-51 0 0 100 c0 112 5 119 73 120
27 0 45 -7 62 -25z"/>
<path d="M3138 1293 c-16 -4 -18 -23 -18 -213 0 -231 5 -248 65 -253 24 -2 31
2 33 21 2 14 -2 22 -12 22 -30 0 -36 38 -36 234 0 108 -3 195 -7 195 -5 -1
-16 -3 -25 -6z"/>
<path d="M4683 1293 l-23 -4 0 -224 c0 -138 4 -226 10 -230 5 -3 40 -8 77 -11
58 -5 75 -2 112 18 53 27 81 75 81 136 0 111 -88 184 -186 154 l-34 -10 0 89
c0 49 -3 88 -7 88 -5 -1 -18 -4 -30 -6z m172 -228 c21 -20 25 -34 25 -80 0
-49 -4 -60 -29 -86 -25 -24 -37 -29 -80 -29 l-51 0 0 100 c0 112 5 119 73 120
27 0 45 -7 62 -25z"/>
<path d="M549 1269 c-230 -33 -422 -198 -496 -423 -38 -117 -37 -257 2 -375
34 -99 83 -178 156 -250 89 -87 87 -89 81 47 -3 90 -1 131 11 173 37 127 148
288 260 375 138 108 359 191 415 155 12 -7 11 -14 -3 -41 -11 -21 -13 -36 -7
-42 14 -14 44 46 40 80 -9 77 -232 27 -414 -94 -122 -81 -241 -228 -299 -371
-23 -55 -29 -88 -33 -175 -2 -60 -8 -108 -13 -108 -14 0 -100 113 -128 169
-52 104 -65 158 -65 271 -1 84 4 120 24 179 28 89 102 204 168 261 240 212
605 195 823 -38 171 -183 208 -452 92 -676 -47 -89 -155 -199 -240 -244 -161
-85 -352 -93 -514 -24 -44 19 -46 19 -42 2 3 -12 31 -27 86 -46 112 -37 258
-40 362 -5 111 36 184 80 261 156 207 206 241 528 82 773 -87 134 -245 239
-403 267 -88 16 -123 17 -206 4z"/>
<path d="M1650 1035 l0 -215 30 0 30 0 0 215 0 215 -30 0 -30 0 0 -215z"/>
<path d="M3737 1173 c15 -86 65 -282 82 -325 8 -22 17 -28 39 -28 27 0 30 5
75 130 26 72 47 135 47 140 0 6 4 10 9 10 4 0 27 -55 51 -122 54 -157 55 -158
89 -158 26 0 29 5 50 73 18 61 52 208 76 325 6 30 5 32 -23 32 l-29 0 -27
-134 c-14 -73 -32 -153 -39 -177 l-13 -44 -31 80 c-17 44 -41 113 -54 153 -21
65 -26 73 -47 70 -21 -3 -29 -19 -67 -128 -58 -169 -62 -178 -69 -160 -9 26
-34 131 -51 220 -23 122 -23 120 -54 120 l-29 0 15 -77z"/>
<path d="M1840 1122 c-24 -11 -37 -27 -44 -49 -13 -47 12 -79 90 -113 71 -32
88 -55 58 -77 -14 -11 -36 -13 -86 -10 -63 5 -68 4 -68 -14 0 -27 43 -42 108
-37 68 6 106 33 110 79 4 47 -16 70 -90 99 -50 20 -64 30 -66 49 -5 33 14 42
78 39 49 -3 55 -1 58 18 2 17 -4 23 -29 28 -51 10 -82 7 -119 -12z"/>
<path d="M2123 1133 c-16 -3 -23 -12 -23 -27 0 -21 3 -22 59 -18 50 4 62 1 80
-17 11 -11 21 -30 21 -41 0 -17 -5 -19 -44 -14 -87 12 -151 -29 -151 -96 0
-76 64 -109 185 -95 l60 7 0 114 c0 132 -11 166 -61 183 -31 11 -82 12 -126 4z
m135 -215 l3 -48 -51 0 c-67 0 -90 13 -90 50 0 38 23 50 85 47 l50 -2 3 -47z"/>
<path d="M2841 1122 c-52 -26 -74 -63 -78 -129 -7 -101 41 -160 138 -169 65
-7 109 7 109 35 0 18 -5 19 -55 14 -83 -9 -117 11 -139 80 -5 15 4 17 104 17
l110 0 0 40 c0 104 -95 160 -189 112z m116 -54 c42 -39 31 -48 -57 -48 -89 0
-102 12 -54 49 35 27 81 27 111 -1z"/>
<path d="M3323 1133 c-24 -5 -27 -11 -18 -35 4 -11 20 -13 61 -10 62 5 94 -13
94 -55 0 -20 -4 -22 -25 -17 -14 3 -46 3 -71 -1 -61 -9 -94 -41 -94 -92 0 -79
57 -111 174 -98 l66 7 0 119 c0 67 -5 129 -11 141 -20 38 -98 56 -176 41z
m137 -213 l0 -50 -52 0 c-34 0 -58 6 -70 17 -43 39 -4 83 74 83 l48 0 0 -50z"/>
<path d="M4384 1126 c-93 -41 -113 -203 -34 -270 34 -28 94 -41 156 -31 37 5
44 10 44 29 0 23 -2 24 -64 19 -62 -5 -66 -4 -95 25 -17 17 -31 40 -31 51 0
20 5 21 111 21 l111 0 -7 48 c-8 60 -28 90 -70 108 -42 17 -81 17 -121 0z
m116 -56 c40 -40 27 -50 -60 -50 -87 0 -95 6 -55 45 31 32 86 34 115 5z"/>
<path d="M538 975 c-44 -16 -113 -62 -145 -96 -37 -41 -75 -137 -81 -205 -2
-35 -2 -64 1 -64 3 0 17 21 32 46 59 100 214 240 327 295 32 15 44 26 35 31
-19 12 -128 8 -169 -7z"/>
<path d="M759 901 c-100 -42 -210 -123 -276 -202 -63 -76 -123 -174 -123 -202
0 -29 78 -105 139 -134 48 -24 68 -28 141 -28 72 0 93 4 141 27 70 35 122 87
157 157 23 49 27 68 27 146 0 79 -4 97 -27 142 -25 46 -92 123 -107 123 -3 0
-36 -13 -72 -29z"/>
<path d="M2712 568 c-16 -16 -15 -33 3 -48 21 -18 55 -3 55 25 0 32 -35 46
-58 23z"/>
<path d="M1673 543 c-23 -4 -23 -5 -23 -207 l0 -203 31 -7 c88 -17 196 3 245
46 53 47 68 83 68 163 0 80 -15 116 -68 163 -49 43 -161 63 -253 45z m187 -62
c51 -27 75 -74 75 -146 0 -109 -57 -165 -167 -165 l-58 0 0 165 0 165 58 0
c37 0 70 -7 92 -19z"/>
<path d="M2154 426 c-93 -41 -113 -203 -34 -270 34 -28 94 -41 156 -31 37 5
44 10 44 29 0 23 -2 24 -64 19 -62 -5 -66 -4 -95 25 -17 17 -31 40 -31 51 0
20 5 21 111 21 l111 0 -7 48 c-8 60 -28 90 -70 108 -42 17 -81 17 -121 0z
m116 -56 c40 -40 27 -50 -60 -50 -87 0 -95 6 -55 45 31 32 86 34 115 5z"/>
<path d="M2460 422 c-24 -11 -37 -27 -44 -49 -13 -47 12 -79 90 -113 71 -32
88 -55 58 -77 -14 -11 -36 -13 -86 -10 -63 5 -68 4 -68 -14 0 -27 43 -42 108
-37 68 6 106 33 110 79 4 47 -16 70 -90 99 -50 20 -64 30 -66 49 -5 33 14 42
78 39 49 -3 55 -1 58 18 2 17 -4 23 -29 28 -51 10 -82 7 -119 -12z"/>
<path d="M2710 280 l0 -160 25 0 25 0 0 160 0 160 -25 0 -25 0 0 -160z"/>
<path d="M2931 423 c-52 -27 -74 -64 -78 -130 -5 -71 18 -120 68 -146 34 -18
91 -19 133 -1 17 6 18 4 12 -22 -13 -53 -41 -67 -123 -61 -71 5 -73 5 -73 -18
0 -21 6 -24 55 -30 74 -10 120 0 158 35 l32 28 3 167 c2 93 -1 172 -6 177 -5
5 -40 11 -78 14 -55 4 -76 2 -103 -13z m137 -131 c3 -91 2 -92 -23 -102 -38
-14 -77 -12 -102 5 -31 21 -45 81 -32 128 14 50 42 68 104 65 l50 -3 3 -93z"/>
<path d="M3260 431 l-35 -6 -3 -152 -3 -153 31 0 30 0 0 135 0 135 50 0 c81 0
90 -16 90 -155 l0 -115 31 0 31 0 -4 122 c-2 86 -8 130 -18 146 -30 45 -100
61 -200 43z"/>
<path d="M3620 434 c-37 -15 -60 -48 -60 -85 0 -44 12 -56 93 -89 64 -26 80
-48 56 -77 -11 -12 -27 -14 -80 -10 -60 5 -68 4 -72 -14 -6 -24 0 -28 56 -35
100 -14 157 17 157 85 0 45 -26 72 -88 92 -104 33 -89 99 19 86 42 -5 48 -4
53 16 3 11 3 23 1 25 -7 7 -120 12 -135 6z"/>
</g>
</svg>
