<?xml version="1.0" encoding="utf-8"?>
<svg viewBox="0 0 500 500" xmlns="http://www.w3.org/2000/svg">
  <g transform="matrix(1.079606, 0, 0, 1.079606, 31.017315, 3.214633)" style="">
    <path d="M155.53307,279.99431c2.30531,4.46264,1.87197,9.26954-.9679,10.73656-2.83986,1.46701-7.01082-.9614-9.31612-5.42405-1.00911-1.95345-1.49335-3.97285-1.48081-5.74922l-9.53101-19.03203,9.02648-4.28245,8.43766,19.21639c1.45595,1.01779,2.82259,2.58135,3.8317,4.5348Z" fill="#ffb6b6"/>
    <g>
      <polygon points="84.60533 451.71752 92.73168 451.71672 96.59743 420.3719 84.60368 420.37272 84.60533 451.71752" fill="#ffb6b6"/>
      <path d="M112.44719,451.53317h0c.25301,.42612,.38653,1.80152,.38653,2.29709h0c0,1.52326-1.23484,2.7581-2.75809,2.7581h-25.16634c-1.03917,0-1.88158-.84241-1.88158-1.88158v-1.04776s-1.24497-3.14904,1.3182-7.03041c0,0,3.18565,3.03919,7.94583-1.72099l1.40373-2.54295,10.1611,7.43128,5.63215,.69326c1.23218,.15167,2.32465-.02354,2.95847,1.04395Z" style=""/>
    </g>
    <g>
      <polygon points="46.48117 451.71752 54.60752 451.71672 58.47327 420.3719 46.47952 420.37272 46.48117 451.71752" fill="#ffb6b6"/>
      <path d="M74.32303,451.53317h0c.25301,.42612,.38653,1.80152,.38653,2.29709h0c0,1.52326-1.23484,2.7581-2.75809,2.7581h-25.16634c-1.03917,0-1.88158-.84241-1.88158-1.88158v-1.04776s-1.24497-3.14904,1.3182-7.03041c0,0,3.18565,3.03919,7.94583-1.72099l1.40373-2.54295,10.1611,7.43128,5.63215,.69326c1.23218,.15167,2.32465-.02354,2.95847,1.04395Z" style=""/>
    </g>
    <polygon points="34.97848 266.77741 31.55506 287.6983 42.2057 355.40594 44.86836 437.18763 59.24792 437.18763 66.55002 359.9705 65.78926 308.99958 82.90636 437.94839 97.849 437.94839 99.26269 276.28691 34.97848 266.77741" style=""/>
    <path d="M52.85634,158.36912h26.92012l23.29004,13.69368c-3.62484-.92135-6.42515,32.70809-6.5204,62.42281-.00633,1.97451-1.96294,4.24471-1.94483,6.17336,.0156,1.66172,2.00271,2.98925,2.03722,4.60133,.03225,1.50656,.07291,2.98829,.12227,4.4393,.04098,1.20464-2.21263,2.80044-2.15949,3.95936,.06788,1.48053,2.44639,2.50867,2.53471,3.90206,.54298,8.56572,1.47886,15.35199,2.88747,18.72588,0,0-60.10003,16.73672-64.66459-9.12912,0,0,.26066-9.29699,.22408-22.13565-.00325-1.13908-.97335-2.17236-.98166-3.36318-.00618-.88537,.95064-1.91761,.94128-2.82771-.0077-.74818-.93124-1.40943-.94128-2.17229-.00598-.45469,.90232-1.00655,.89545-1.46594-.36498-24.41361-2.00419-55.18077-7.74547-63.13023l25.10508-13.69368Z" style=""/>
    <path d="M79.48294,158.36912s17.4438,6.33911,22.97888,11.38909c2.94129,2.68351,22.66672,53.27551,22.66672,53.27551l27.39784,47.71441-14.24142,5.40954-29.13238-43.99483-12.93292-28.90888-16.73672-44.88484Z" style=""/>
    <path d="M43.30131,281.79985c2.54422,4.33089,2.37252,9.15422-.3835,10.77327-2.75602,1.61905-7.05268-.57931-9.59689-4.9102-1.11369-1.89578-1.70686-3.8859-1.79079-5.66034l-10.55035-18.48644,8.78063-4.76625,9.46862,18.7299c1.50906,.93723,2.95859,2.42428,4.07228,4.32006Z" fill="#ffb6b6"/>
    <path d="M49.05254,181.95267l-7.6076-17.49748s-17.87786,5.7057-17.87786,14.07406c0,0-10.65064,63.90383-9.12912,79.87979l9.88988,17.49748,14.07406-11.03102-8.74874-20.16014,19.39938-62.76269Z" style=""/>
    <polygon points="33.40674 295.62938 42.38042 277.80843 52.85634 292.26286 43.42802 301.39198 33.40674 295.62938" style=""/>
    <circle cx="66.06273" cy="135.93185" r="17.41061" fill="#ffb6b6"/>
    <path d="M79.63923,116.48275c-3.02557-.96901-4.45717-4.56794-7.22476-6.12798-3.06065-1.72524-6.72217-2.80225-10.09728-1.8261-2.07087,.59896-3.87505,1.92276-5.94739,2.51668-.36226,.10383-.74339,.17541-1.13032,.21227-2.2287,.21232-4.14206,1.54889-5.25588,3.49095l-.02909,.05018c-.65386,1.11896-1.58328,2.04571-2.40816,3.04522-3.01009,3.64763-4.63927,8.38811-4.60573,13.11724,.03603,5.08346,1.99201,10.13051,5.39105,13.91061l.86829-.40033c2.09834,1.81253,4.19667,3.62506,6.29505,5.43758-1.14194-4.12047-2.29454-8.38517-1.68998-12.6179,.60453-4.23281,3.451-8.45577,7.64789-9.273,1.58769-.30907,3.2622-.12225,4.80339-.61304,1.54123-.4908,2.96079-2.07527,2.43206-3.60399,.95434,2.52305,4.51392,2.37403,6.96388,3.5028,5.48344,2.52636,3.47618-1.37793,8.23617,2.33599,1.60783-8.91089,7.76669-9.30882-4.24917-13.15719Z" style=""/>
  </g>
  <path d="M 31.018 495.5 C 31.018 496.213 31.59 496.785 32.303 496.785 L 467.698 496.785 C 468.41 496.785 468.982 496.213 468.982 495.5 C 468.982 494.788 468.41 494.216 467.698 494.216 L 32.303 494.216 C 31.59 494.216 31.018 494.788 31.018 495.5 Z" fill="#ccc" style=""/>
  <path d="M 410.739 496.785 L 220.27 496.785 C 197.045 496.785 178.151 477.89 178.151 454.665 L 178.151 45.334 C 178.151 22.109 197.045 3.215 220.27 3.215 L 410.739 3.215 C 433.962 3.215 452.858 22.109 452.858 45.334 L 452.858 454.665 C 452.858 477.89 433.962 496.785 410.739 496.785 Z" style=""/>
  <path d="M 452.858 153.779 C 451.876 153.779 451.076 154.579 451.076 155.562 L 451.076 212.581 C 451.076 213.563 451.876 214.363 452.858 214.363 C 453.84 214.363 454.64 213.563 454.64 212.581 L 454.64 155.562 C 454.64 154.579 453.84 153.779 452.858 153.779 Z" style=""/>
  <path d="M 448.85 45.334 L 448.85 454.659 C 448.85 474.873 433.115 491.409 413.221 492.692 L 413.213 492.692 C 412.918 492.71 412.625 492.728 412.321 492.736 C 411.795 492.763 411.27 492.772 410.735 492.772 C 410.735 492.772 408.775 492.63 405.194 492.362 C 401.576 492.096 396.311 491.693 389.746 491.167 C 387.776 491.016 385.701 490.847 383.508 490.669 C 379.144 490.313 374.35 489.921 369.21 489.476 C 367.161 489.307 365.04 489.119 362.875 488.932 C 351.81 487.978 339.418 486.865 326.348 485.6 C 324.138 485.395 321.911 485.181 319.666 484.959 C 319.078 484.897 318.48 484.842 317.884 484.781 C 308.565 483.863 182.161 459.433 182.161 454.659 L 182.161 45.334 C 182.161 24.281 199.222 7.221 220.274 7.221 L 243.028 7.221 C 246.662 7.221 249.586 10.053 249.898 13.679 C 249.924 13.92 249.95 14.161 249.994 14.401 C 250.655 18.045 253.996 20.584 257.701 20.584 L 373.309 20.584 C 377.015 20.584 380.355 18.045 381.015 14.401 C 381.059 14.161 381.086 13.92 381.112 13.679 C 381.424 10.053 384.346 7.221 387.982 7.221 L 410.735 7.221 C 431.788 7.221 448.85 24.281 448.85 45.334 Z" fill="#fff" style=""/>
  <path d="M 177.261 111.016 C 176.277 111.016 175.478 111.816 175.478 112.798 L 175.478 127.052 C 175.478 128.036 176.277 128.835 177.261 128.835 C 178.243 128.835 179.042 128.036 179.042 127.052 L 179.042 112.798 C 179.042 111.816 178.243 111.016 177.261 111.016 Z" style=""/>
  <path d="M 177.261 153.779 C 176.277 153.779 175.478 154.579 175.478 155.562 L 175.478 183.181 C 175.478 184.163 176.277 184.962 177.261 184.962 C 178.243 184.962 179.042 184.163 179.042 183.181 L 179.042 155.562 C 179.042 154.579 178.243 153.779 177.261 153.779 Z" style=""/>
  <path d="M 177.261 192.98 C 176.277 192.98 175.478 193.779 175.478 194.763 L 175.478 222.381 C 175.478 223.364 176.277 224.163 177.261 224.163 C 178.243 224.163 179.042 223.364 179.042 222.381 L 179.042 194.763 C 179.042 193.779 178.243 192.98 177.261 192.98 Z" style=""/>
  <rect x="207.997" y="13.46" width="34.746" height="4.454" rx="0.31" ry="0.31" fill="#e6e6e6" style=""/>
  <circle cx="393.612" cy="14.351" r="3.564" fill="#e6e6e6" style=""/>
  <circle cx="403.411" cy="14.351" r="3.564" fill="#e6e6e6" style=""/>
  <circle cx="413.211" cy="14.351" r="3.564" fill="#e6e6e6" style=""/>
  <path d="M 391.077 105.95 L 239.933 105.95 C 237.551 105.95 235.614 104.011 235.614 101.631 C 235.614 99.249 237.551 97.312 239.933 97.312 L 391.077 97.312 C 393.459 97.312 395.396 99.249 395.396 101.631 C 395.396 104.011 393.459 105.95 391.077 105.95 Z" fill="#e6e6e6" style=""/>
  <path d="M 416.492 447.645 L 360.352 447.645 C 357.971 447.645 356.033 445.706 356.033 443.326 C 356.033 440.944 357.971 439.007 360.352 439.007 L 416.492 439.007 C 418.872 439.007 420.81 440.944 420.81 443.326 C 420.81 445.706 418.872 447.645 416.492 447.645 Z" fill="#e6e6e6" style=""/>
  <path d="M 266.426 447.645 L 210.286 447.645 C 207.905 447.645 205.969 445.706 205.969 443.326 C 205.969 440.944 207.905 439.007 210.286 439.007 L 266.426 439.007 C 268.806 439.007 270.745 440.944 270.745 443.326 C 270.745 445.706 268.806 447.645 266.426 447.645 Z" fill="#e6e6e6" style=""/>
  <rect x="210.199" y="117.552" width="210.611" height="1.079" fill="#3f3d56" style=""/>
  <path d="M 391.077 171.805 L 239.933 171.805 C 237.551 171.805 235.614 169.867 235.614 167.487 C 235.614 165.105 237.551 163.168 239.933 163.168 L 391.077 163.168 C 393.459 163.168 395.396 165.105 395.396 167.487 C 395.396 169.867 393.459 171.805 391.077 171.805 Z" fill="#e6e6e6" style=""/>
  <rect x="210.199" y="183.409" width="210.611" height="1.079" fill="#3f3d56" style=""/>
  <path d="M 391.077 237.661 L 239.933 237.661 C 237.551 237.661 235.614 235.724 235.614 233.342 C 235.614 230.961 237.551 229.025 239.933 229.025 L 391.077 229.025 C 393.459 229.025 395.396 230.961 395.396 233.342 C 395.396 235.724 393.459 237.661 391.077 237.661 Z" fill="#e6e6e6" style=""/>
  <rect x="210.199" y="249.265" width="210.611" height="1.079" fill="#3f3d56" style=""/>
  <rect x="210.199" y="305.405" width="210.611" height="1.079" fill="#3f3d56" style=""/>
  <rect x="210.199" y="361.543" width="210.611" height="1.079" fill="#3f3d56" style=""/>
  <circle cx="316.986" cy="338.417" r="62.617" style=""/>
</svg>