<svg width="353" height="537" viewBox="0 0 353 537" fill="none" xmlns="http://www.w3.org/2000/svg">
<path d="M2.03443 417.968C4.48535 414.75 4.6722 410.871 1.06146 408.228C-0.629341 411.429 -0.296701 415.076 2.03443 417.968Z" fill="#F6F6F6"/>
<path d="M9.84021 389.709C7.86159 392.564 8.3599 395.939 7.37085 399.028C17.2195 389.12 30.7412 386.198 39.5534 374.915C42.8347 370.722 69.9097 356.473 60.7062 349.223C66.2643 350.625 62.5759 347.11 63.0455 344.138C63.6202 340.517 70.3132 340.237 73.2218 339.997C78.2045 339.589 79.2423 337.93 80.2355 333.964C81.6232 328.435 86.1516 329.972 90.3762 327.752C99.2676 323.092 93.0988 318.025 89.7121 312.198C85.6453 305.203 93.1103 296.067 86.8162 290.009C82.4728 293.084 87.0786 305.516 81.1743 300.445C82.5671 303.028 86.2872 310.26 86.493 313.061C83.0211 311.209 78.9984 309.201 77.8323 305.487C77.5944 309.327 79.7362 312.482 80.9191 316.032C82.1107 319.598 76.5771 330.311 74.6862 322.681C74.2536 325.018 72.7659 325.743 70.3266 326.244C68.4404 326.628 69.2505 331.349 68.6868 332.493C67.9756 333.936 64.6645 331.921 63.848 333.243C62.5462 335.34 65.693 336.928 63.5864 339.298C62.9874 332.135 59.1848 340.272 57.8875 342.155C55.7284 345.294 53.6583 348.487 50.7176 351.137C46.0617 355.331 43.4777 361.182 38.0824 364.8C35.9343 366.237 33.5935 365.46 31.4566 366.75C29.009 368.223 28.7614 370.95 26.2496 372.126C19.1258 375.48 12.8099 383.163 9.84031 389.709" fill="#F6F6F6"/>
<path d="M11.6115 404.331C11.4503 403.281 11.1579 402.26 10.7347 401.264C11.0317 402.289 11.3192 403.31 11.6115 404.331Z" fill="#F6F6F6"/>
<path d="M81.856 116.919C80.0162 123.57 86.1963 122.924 86.7952 126.749C87.71 132.607 87.8906 140.109 91.0047 145.349C94.0069 150.396 95.485 154.785 96.2496 160.339C96.7145 163.705 102.501 171.28 101.992 163.703C108.341 166.038 104.171 176.914 111.549 179.123C122.434 182.383 114.268 169.702 114.693 165.642C117.443 166.626 139.967 173.944 130.883 179.183C127.398 181.191 124.311 183.663 121.147 186.028C116.076 189.816 120.74 197.787 121.016 202.866C123.966 202.656 125.184 201.163 123.983 198.713C130.199 199.008 132.919 202.128 131.578 207.464C133.876 201.237 138.153 206.911 136.657 210.06C140.221 209.664 145.356 211.756 148.399 209.283C150.995 207.169 151.835 203.843 154.773 202.049C155.686 201.493 161.025 198.169 162.254 199.099C166.461 202.289 172.184 203.992 176.028 207.457C181.113 212.034 190.903 218.376 192.062 224.942C192.447 227.141 196.692 230.472 197.846 226.676C197.882 224.608 197.318 222.655 196.172 220.809C195.736 219.779 190.854 213.507 193.571 214.369C188.178 211.143 189.9 204.669 186.198 200.475C193.701 199.688 200.353 207.797 203.749 212.414C208.348 218.66 216.612 219.297 220.449 226.934C221.453 228.939 218.773 232.668 222.025 233.395C225.552 234.182 228.447 236.499 231.646 237.979C234.2 239.164 236.329 242.412 239.364 241.134C241.571 240.209 244.907 237.421 247.588 238.007C246.875 241.708 238.995 243.111 242.201 247.554C242.781 248.357 248.881 256.688 250.768 252.739C253.7 246.604 251.763 224.91 238.12 232.539C236.743 229.927 238.358 228.266 237.77 225.743C237.023 222.55 232.003 217.819 228.975 216.151C220.942 211.73 238.449 208.249 242.867 210.545C242.278 206.059 234.119 203.993 229.977 203.522C222.918 202.715 221.955 197.42 216.134 196.308C214.479 200.475 223.208 206.913 215.584 209.032C210.004 210.583 208.883 198.941 206.606 195.25C201.975 187.722 181.468 180.454 181.286 194.24C180.5 192.958 179.64 191.716 178.707 190.514C173.878 194.146 183.269 196.834 180.486 199.401C175.785 203.745 166.805 197.333 163.645 194.265C160.813 191.512 148.948 172.114 158.357 171.938C150.067 166.45 141.898 151.178 146.162 142.71C149.069 136.937 145.916 131.485 148.553 126.407C151.81 120.118 161.576 120.017 166.713 115.481C166.072 117.183 165.422 118.88 164.762 120.578C169.103 116.567 167.998 111.655 170.14 106.805C173.41 99.4126 177.684 91.5061 176.416 83.344C171.531 85.1749 173.971 79.4325 172.495 77.4451C168.406 71.9536 163.412 71.615 161.081 64.1676C158.7 56.5248 159.169 50.6832 163.071 43.7041C165.097 40.0843 160.086 29.809 156.071 35.0566C154.477 37.1401 154.005 41.8354 149.91 41.0421C147.432 40.5595 142.151 37.8643 139.827 40.2606C138.607 37.6875 135.905 35.8112 133.36 34.3066C128.256 31.2928 121.634 26.8043 115.36 28.3995C112.653 29.0891 109.8 27.7176 107.15 27.4231C104.677 27.1429 106.456 30.3539 104.119 30.2763C97.4714 30.0555 101.518 33.4135 101.239 36.8553C100.733 43.0075 98.2071 50.5169 96.9194 56.7359C94.5704 68.052 103.937 78.4298 100.712 90.4416C98.0992 100.181 102.4 107.656 103.507 116.841C104.89 128.226 85.8645 112.471 84.6762 107.603C80.2355 109.373 80.4795 113.514 81.856 116.919" fill="#F6F6F6"/>
<path d="M86.2404 111.001C87.2427 111.944 88.2448 112.892 89.2424 113.831C90.1091 111.348 89.7341 108.9 86.2404 111.001Z" fill="#F6F6F6"/>
<path d="M98.9019 290.727C100.039 287.554 98.8025 286.91 95.1889 288.783C96.4298 289.431 97.6611 290.079 98.9019 290.727Z" fill="#F6F6F6"/>
<path d="M102.689 258.693C101.683 257.737 100.566 256.89 99.3385 256.154C92.8066 266.055 107.817 268.272 115.77 268.537C116.081 266.684 114.937 264.131 113.067 263.137C109.214 261.084 106.692 261.839 102.689 258.693" fill="#F6F6F6"/>
<path d="M101.385 201.004C102.612 203.974 105.966 205.884 108.741 207.62C109.066 203.88 105.324 201.283 101.385 201.004Z" fill="#F6F6F6"/>
<path d="M103.558 270.857C102.042 271.11 100.527 271.364 99.0117 271.617C99.6751 275.397 104.797 275.879 104.221 279.981C107.462 277.607 104.453 273.39 103.558 270.857Z" fill="#F6F6F6"/>
<path d="M106.904 321.331C106.667 316.023 98.6081 320.668 98.5181 324.087C103.103 325.874 102.498 320.633 106.904 321.331Z" fill="#F6F6F6"/>
<path d="M93.4823 536.295C95.4471 533.204 95.2513 529.726 93.5653 526.589C93.8435 529.826 93.622 533.064 93.4823 536.295Z" fill="#F6F6F6"/>
<path d="M110.814 215.274C111.478 217.04 118.91 222.673 120.675 223.991C128.185 229.609 125.982 236.531 131.364 242.356C133.724 244.912 149.267 272.186 153.654 256.745C154.584 253.472 157.008 250.754 157.88 247.48C158.742 244.23 155.359 241.198 155.501 237.92C155.839 230.093 151.547 225.075 145.738 219.598C141.051 215.157 115.677 210.181 110.814 215.274" fill="#F6F6F6"/>
<path d="M122.878 0.568508C124.378 2.68306 126.495 4.06809 129.236 4.72374C130.406 1.32835 126.198 -1.1711 122.878 0.568508Z" fill="#F6F6F6"/>
<path d="M113.728 275.746C113.706 273.592 113.438 271.459 112.947 269.349C111.517 271.652 111.775 273.785 113.728 275.746Z" fill="#F6F6F6"/>
<path d="M124.803 19.4426C126.074 19.3836 127.336 19.3244 128.607 19.2656C126.663 18.4299 125.776 17.8274 124.803 19.4426Z" fill="#F6F6F6"/>
<path d="M107.946 521.91C110.152 520.913 122.936 515.387 122.409 514C120.487 508.884 116.649 513.502 113.642 515.23C109.95 517.371 104.033 517.267 107.946 521.91Z" fill="#F6F6F6"/>
<path d="M143.769 20.983C146.133 19.5613 147.289 17.16 146.492 14.7021C144.281 16.369 143.374 18.4626 143.769 20.983Z" fill="#F6F6F6"/>
<path d="M159.996 494.205C169.649 490.379 155.03 485.873 150.458 486.459C145.484 487.103 145.919 492.62 147.099 492.112C150.37 490.708 158.709 490.281 159.996 494.205Z" fill="#F6F6F6"/>
<path d="M160.223 160.787C161.19 164.544 163.094 171.75 167.654 173.469C169.88 168.992 169.048 154.431 160.223 160.787Z" fill="#F6F6F6"/>
<path d="M176.65 197.739C175.773 194.019 170.287 191.275 166.602 190.12C168.829 193.649 172.995 195.558 176.65 197.739Z" fill="#F6F6F6"/>
<path d="M165.411 217.694C164.988 224.49 176.833 229.986 177.604 220.278C177.986 215.335 167.452 212.292 165.411 217.694Z" fill="#F6F6F6"/>
<path d="M176.72 171.65C177.878 168.764 176.761 167.918 173.369 169.112C174.491 169.958 175.603 170.8 176.72 171.65Z" fill="#F6F6F6"/>
<path d="M171.75 278.886C182.886 281.001 179.864 288.549 179.327 296.073C178.943 301.53 179.797 305.448 177.881 310.858C175.893 316.497 179.435 322.051 176.903 327.601C183.283 329.009 187.809 319.468 194.821 319.701C199.386 319.852 208.142 314.298 206.99 310.274C205.984 306.751 220.616 305.935 218.863 300.905C216.531 294.233 222.275 285.334 209.897 292.597C212.976 289.863 208.698 285.878 205.131 286.451C201.82 286.981 199.528 290.533 196.828 287.818C193.774 284.75 191.655 281.288 187.361 279.338C183.321 277.505 178.034 276.613 175.467 272.946C173.574 274.607 172.335 276.588 171.75 278.886" fill="#F6F6F6"/>
<path d="M175.638 252.317C174.926 257.771 172.153 262.335 176.724 267.215C177.838 261.016 178.679 254.795 180.425 248.755C181.409 245.341 172.46 247.226 175.638 252.317" fill="#F6F6F6"/>
<path d="M179.439 173.257C180.595 173.195 181.746 173.132 182.907 173.069C181.72 172.853 180.568 172.916 179.439 173.257Z" fill="#F6F6F6"/>
<path d="M184.997 252.627C187.975 253.122 187.668 252.101 184.072 249.562C184.383 250.588 184.69 251.606 184.997 252.627Z" fill="#F6F6F6"/>
<path d="M180.808 469.719C181.326 473.402 185.206 475.595 189.196 474.152C193.272 472.686 193.158 468.873 195.808 466.273C192.24 466.42 190.2 463.929 186.951 463.248C183.598 462.538 180.902 466.102 177.819 466.585C178.683 467.726 179.681 468.771 180.808 469.719" fill="#F6F6F6"/>
<path d="M181.763 447.602C179.613 456.106 192.852 460.161 194.302 450.185C194.829 446.553 197.064 436.54 200.289 435.534C202.857 434.739 205.249 421.524 210.845 425.62C214.87 428.568 212.91 434.554 216.066 437.819C217.208 432.518 219.285 435.183 220.914 437.98C222.409 434.739 221.473 430.157 226.172 428.75C228.146 431.007 227.634 433.632 225.164 435.391C229.914 435.701 232.681 440.954 237.446 440.35C236.081 438.467 234.403 435.917 234.619 433.581C234.739 432.254 238.068 432.516 238.516 431.284C239.699 428.04 235.519 428.668 240.475 425.647C243.521 423.793 246.295 427.324 248.484 428.631C255.929 433.075 262.766 434.461 264.941 443.408C266.116 448.272 258.477 452.535 257.669 457.662C256.856 462.792 259.708 469.983 260.731 475.107C262.307 483.01 269.884 487.973 277.382 491.66C280.822 493.355 292.979 500.867 296.893 498.064C300.027 495.821 298.659 490.23 304.378 490.682C304.943 490.726 302.254 514.044 310.621 509.383C316.437 506.146 321.87 494.537 321.24 488.768C320.355 480.657 313.504 477.041 310.214 470.409C308.229 466.403 320.095 444.746 323.912 446.508C326.848 447.861 332.928 460.549 334.102 463.626C335.251 466.622 334.388 469.682 334.554 472.747C334.793 477.222 338.787 480.333 339.344 484.688C339.653 477.653 343.637 468.649 337.847 462.49C340.88 461.369 343.242 463.011 344.305 465.435C339.347 461.268 347.127 457.515 349.757 454.602C354.845 448.977 351.808 440.406 350.774 434.173C349.928 429.055 342.327 428.781 345.589 423.361C347.479 420.221 347.969 411.991 341.316 414.366C352.802 406.379 332.565 402.98 333.013 398.613C333.272 396.06 339.002 395.057 340.224 392.582C342.415 388.151 336.781 386.156 335.43 382.618C334.795 380.949 337.213 373.158 333.67 374.616C329.198 376.452 328.447 375.024 326.205 371.971C323.549 368.351 326.474 366.413 320.401 364.564C313.713 362.526 312.716 357.124 306.895 354.668C303.024 361.387 308.923 370.592 311 377.129C311.469 378.624 313.691 384.15 310.591 384.827C306.549 385.704 301.086 384.659 299.512 380.818C295.878 389.635 299.326 390.47 290.036 384.338C281.292 378.57 288.159 400.406 280.686 401.055C275.886 401.473 275.173 396.389 270.692 397.98C266.03 399.642 266.979 407.056 265.385 410.445C263.474 414.52 256.681 412.449 253.153 414.775C251.105 416.127 247.538 419.367 244.798 419.382C241.971 419.397 248.468 415.644 247.882 415.961C251.548 413.993 252.347 412.857 251.617 408.846C251.049 405.734 246.859 390.708 240.679 397.687C239.888 395.179 238.292 391.974 234.675 392.023C236.331 400.425 224.581 396.832 221.592 401.267C218.059 406.501 220.669 411.51 212.981 413.45C205.206 415.412 193.934 413.1 189.932 421.516C188.219 425.126 189.005 429.403 188.36 433.191C187.524 438.203 184.321 443.132 181.763 447.602" fill="#F6F6F6"/>
<path d="M194.308 252.938C193.021 253.586 191.834 254.355 190.748 255.246C193.601 257.393 196.534 259.48 199.112 261.895C202.528 258.031 199.876 253.097 194.308 252.938" fill="#F6F6F6"/>
<path d="M203.636 365.199C206.839 367.383 211.564 367.481 214.178 370.399C216.383 372.862 215.005 376.625 217.671 378.867C221.345 381.96 226.504 378.583 228.532 375.696C232.301 370.323 225.964 366.366 224.497 361.514C221.782 352.579 226.251 339.702 229.786 331.198C232.474 324.722 240.783 316.183 230.614 311.037C227.26 309.342 222.847 308.694 219.176 310.004C212.869 312.26 215.26 317.088 213.497 321.526C212.359 324.387 209.084 325.214 210.135 328.7C211.304 332.573 213.009 336.818 211.084 340.77C208.188 346.725 195.655 342.441 195.551 349.192C195.47 354.848 200.251 360.679 203.636 365.199" fill="#F6F6F6"/>
<path d="M199.984 329.581C203.128 328.455 210.781 320.319 204.276 318.691C199.364 317.462 197.668 327.245 199.984 329.581Z" fill="#F6F6F6"/>
<path d="M224.318 246.955C220.588 241.185 216.34 233.362 209.125 230.371C205.281 235.578 221.733 243.381 224.318 246.955Z" fill="#F6F6F6"/>
<path d="M219.44 271.976C219.282 273.083 219.118 274.186 218.96 275.293C223.948 272.538 228.082 261.185 233.697 267.376C235.973 269.887 238.496 272.229 240.499 274.921C243.039 278.33 248.555 278.686 251.204 282.128C256.917 273.275 243.111 267.318 238.587 262.22C236.57 259.949 233.383 257.408 230.973 255.567C229.531 254.461 221.457 250.771 219.679 250.746C220.826 253.679 219.454 261.294 220.826 263.042C224.215 267.36 219.982 267.434 219.44 271.976" fill="#F6F6F6"/>
<path d="M215.46 444.171C228.427 440.177 205.428 436.623 215.46 444.171Z" fill="#F6F6F6"/>
<path d="M235.776 254.314C236.976 256.574 238.621 258.551 240.711 260.242C240.191 256.129 239.112 251.079 234.62 248.814C233.482 250.896 233.869 252.729 235.776 254.314Z" fill="#F6F6F6"/>
<path d="M232.555 345.529C232.781 351.882 230.267 357.997 229.296 364.231C239.089 366.848 237.882 346.178 242.047 342.229C247.204 337.331 252.613 333.402 253.776 326.387C255.161 318.034 252.47 309.673 253.12 301.31C248.297 302.013 246.377 315.101 245.427 318.267C242.537 327.872 235.25 335.897 232.555 345.529" fill="#F6F6F6"/>
<path d="M246.596 228.581C247.257 226.53 246.123 226.084 243.193 227.255C244.328 227.693 245.462 228.139 246.596 228.581Z" fill="#F6F6F6"/>
<path d="M240.44 378.86C246.417 378.789 244.104 373.917 241.823 371.321C238.391 372.665 236.119 376.955 240.44 378.86Z" fill="#F6F6F6"/>
<path d="M252.251 217.847C261.165 212.787 260.408 200.706 248.913 198.319C245.256 204.425 247.146 213.405 252.251 217.847Z" fill="#F6F6F6"/>
<path d="M253.77 230.64C252.706 229.792 251.448 229.548 250.005 229.904C251.258 230.152 252.512 230.396 253.77 230.64Z" fill="#F6F6F6"/>
<path d="M245.994 362.662C249.285 362.59 250.48 361.618 249.586 359.747C246.901 359.468 245.971 360.406 245.994 362.662Z" fill="#F6F6F6"/>
<path d="M249.346 356.401C248.054 368.17 272.64 355.561 275.668 356.665C274.035 350.526 274.298 338.538 261.753 341.104C257.35 342.003 243.491 352.853 249.346 356.401Z" fill="#F6F6F6"/>
<path d="M251.941 337.374C252.897 336.395 253.852 335.419 254.808 334.435C251.6 334.375 252.022 335.165 251.941 337.374Z" fill="#F6F6F6"/>
<path d="M258.237 255.06C260.685 261.597 263.605 267.21 269.63 271.822C272.989 274.39 283.148 284.558 287.501 283.038C285.912 285.99 285.904 289.976 281.58 291.029C283.636 292.627 285.29 294.502 286.528 296.654C283.001 292.981 280.665 297.425 277.594 298.857C272.836 301.071 265.816 294.251 263.94 291.054C260.318 294.671 266.099 312.835 271.222 314.956C270.657 306.788 281.108 317.653 281.178 321.81C281.36 332.405 278.81 340.466 291.367 345.965C290.958 342.753 289.207 339.779 289.325 336.496C291.26 338.537 298.294 338.935 299.116 335.599C299.571 333.748 294.777 324.786 293.572 322.862C290.812 318.43 289.89 318.969 289.661 313.15C289.511 309.382 290.702 303.506 287.078 300.625C289.976 300.068 297.792 307.276 297.872 307.203C301.181 304.052 312.899 308.596 316.071 310.386C313.567 307.611 311.921 303.772 307.759 302.526C313.355 299.058 302.92 287.941 302.613 283.591C302.282 279.008 304.8 275.025 302.112 271.042C300.395 268.499 307.227 269.451 301.838 266.36C298.916 264.683 295.05 265.722 295.508 261.595C296.087 256.296 290.84 255.936 286.542 254.959C281.892 253.903 280.388 253.786 275.389 255.014C269.642 256.416 263.599 251.787 258.237 255.06" fill="#F6F6F6"/>
<path d="M268.696 293.332C274.767 294.317 270.838 281.701 263.176 285.26C264.689 288.062 265.437 291.555 268.696 293.332Z" fill="#F6F6F6"/>
<path d="M264.573 325.354C266.628 324.07 268.758 323.163 270.598 321.61C268.513 323.382 266.311 323.507 263.997 321.998C264.189 323.117 264.381 324.236 264.573 325.354" fill="#F6F6F6"/>
<path d="M283.945 380.912C285.718 377.806 282.887 372.795 278.635 375.881C279.307 378.247 281.271 380.178 283.945 380.912Z" fill="#F6F6F6"/>
<path d="M284.26 253.497C285.173 254.277 285.869 254.195 286.337 253.263C285.641 253.341 284.955 253.415 284.26 253.497Z" fill="#F6F6F6"/>
<path d="M297.829 347.696C299.087 348.724 300.325 349.776 301.538 350.853C300.956 347.956 299.576 343.094 294.901 344.262C295.752 345.487 296.731 346.632 297.829 347.696Z" fill="#F6F6F6"/>
<path d="M311.652 348.156C314.339 349.926 314.574 352.504 312.097 354.542C317.218 355.378 316.316 348.896 315.813 346.394C315.282 343.772 313.496 341.412 313.109 338.799C312.755 336.419 314.651 334.577 313.733 332.145C306.812 334.469 312.035 339.724 308.052 343.485C310.79 343.968 312.554 345.619 311.652 348.156" fill="#F6F6F6"/>
<path d="M323.026 462.003C324.257 458.774 323.364 455.508 322.73 452.284C316.695 453.137 321.662 458.544 323.026 462.003Z" fill="#F6F6F6"/>
<path d="M325.836 364.706C328.3 362.635 326.768 359.706 324.388 358.283C323.885 360.596 324.369 362.736 325.836 364.706Z" fill="#F6F6F6"/>
<path d="M328.594 348.718C326.783 350.698 324.91 359.223 330.463 358.303C336.098 357.37 332.292 349.448 328.594 348.718Z" fill="#F6F6F6"/>
<path d="M139.786 40.8745C140.235 42.7224 140.732 44.5593 141.278 46.3894C139.447 44.8243 138.945 42.9872 139.786 40.8745Z" fill="#F6F6F6"/>
<path d="M264.573 325.354C264.381 324.235 264.184 323.116 263.997 321.998C267.896 322.633 268.088 323.752 264.573 325.354Z" fill="#F6F6F6"/>
<path d="M267.064 323.313C268.242 322.746 269.415 322.178 270.598 321.61C269.692 322.676 268.514 323.243 267.064 323.313Z" fill="#F6F6F6"/>
<path d="M286.528 296.654C287.083 297.937 287.267 299.253 287.078 300.621C286.436 299.348 286.248 298.027 286.528 296.654Z" fill="#F6F6F6"/>
<path d="M237.25 308.064C235.223 296.139 253.328 302.837 237.25 308.064Z" fill="#F6F6F6"/>
</svg>
